# xmcd
#
# Track frame offsets:
#	150
#	15635
#	35095
#	51887
#	67860
#	85785
#	104000
#	118697
#	134937
#	150100
#	166962
#
# Disc length: 2404 seconds
#
# Revision: 1
# Processed by: cddbd v1.5.2PL0 Copyright (c) Steve Scherf et al.
# Submitted via: EasyCDDAExtractor 15.3.0.1
#
DISCID=8e09620b
DTITLE=Tamara - Gracias
DYEAR=2000
DGENRE=Latin
TTITLE0=Ayudame Dios Mio
TTITLE1=Si Dios Me Quita La Vida
TTITLE2=Celos
TTITLE3=Cuando Me Pierdas
TTITLE4=Si Tu Me Dejas
TTITLE5=Un Mundo Raro
TTITLE6=Inconsolable
TTITLE7=Si Nos Dejan
TTITLE8=En Tu Pelo
TTITLE9=Gracias
TTITLE10=Una Limosna
EXTD=
EXTT0=
EXTT1=
EXTT2=
EXTT3=
EXTT4=
EXTT5=
EXTT6=
EXTT7=
EXTT8=
EXTT9=
EXTT10=
PLAYORDER=
